<?xml version="1.0" encoding="utf-8"?>
<!-- Generator: Adobe Illustrator 19.2.1, SVG Export Plug-In . SVG Version: 6.00 Build 0)  -->
<svg version="1.1" id="Laag_1" xmlns="http://www.w3.org/2000/svg" xmlns:xlink="http://www.w3.org/1999/xlink" x="0px" y="0px"
	 viewBox="0 0 229.5 165.1" style="enable-background:new 0 0 229.5 165.1;" xml:space="preserve">
<style type="text/css">
	.st0{fill:#FFFFFF;}
</style>
<g>
	<path d="M41.6,90.8v16.5c0,3.8-0.2,7.5-3.1,10.4c-2.5,2.4-6.3,3.3-9.7,3.3s-7.3-0.9-9.7-3.3c-2.9-2.8-3.1-6.6-3.1-10.4V90.8h7.6
		v15.5c0,3.8,0.3,8,5.2,8s5.2-4.2,5.2-8V90.8H41.6z"/>
	<path d="M65.1,102.2V90.9h7.6v29.3h-7.6v-12h-11v12h-7.6V90.9h7.6v11.3H65.1z"/>
	<path d="M85.2,115.1l-2,5.1h-8.1l11.3-29.3h8.3l11.1,29.3h-8.1l-1.9-5.1H85.2z M90.5,99.9L90.5,99.9l-3.2,9.3h6.3L90.5,99.9z"/>
	<path d="M124.2,98.4c-1.4-1.2-3.2-1.9-5.1-1.9c-1.4,0-3.3,0.8-3.3,2.5s2.1,2.4,3.4,2.8l1.9,0.6c4.1,1.2,7.2,3.3,7.2,8
		c0,2.9-0.7,5.9-3,7.9c-2.3,1.9-5.4,2.8-8.3,2.8c-3.7,0-7.3-1.2-10.3-3.3l3.3-6.2c1.9,1.7,4.2,3,6.8,3c1.8,0,3.7-0.9,3.7-3
		s-3-2.9-4.6-3.3c-4.8-1.4-7.9-2.6-7.9-8.3c0-6,4.2-9.8,10.1-9.8c3,0,6.6,0.9,9.2,2.4L124.2,98.4z"/>
	<path d="M148.2,98.4c-1.4-1.2-3.2-1.9-5.1-1.9c-1.4,0-3.3,0.8-3.3,2.5s2.1,2.4,3.4,2.8l1.9,0.6c4.1,1.2,7.2,3.3,7.2,8
		c0,2.9-0.7,5.9-3,7.9c-2.3,1.9-5.4,2.8-8.3,2.8c-3.7,0-7.3-1.2-10.3-3.3l3.3-6.2c1.9,1.7,4.2,3,6.8,3c1.8,0,3.7-0.9,3.7-3
		s-3-2.9-4.6-3.3c-4.8-1.4-7.9-2.6-7.9-8.3c0-6,4.2-9.8,10.1-9.8c3,0,6.6,0.9,9.2,2.4L148.2,98.4z"/>
	<path d="M163.7,97.3v4.9h8.6v6.5h-8.6v5.1h9.1v6.5h-16.7V91h16.7v6.5h-9.1V97.3z"/>
	<path d="M185.1,113.7h9.1v6.5h-16.8V90.9h7.6L185.1,113.7L185.1,113.7z"/>
	<path d="M208.4,120.2h-7.6V97.3h-6.3v-6.5h20.2v6.5h-6.3L208.4,120.2L208.4,120.2z"/>
</g>
<path d="M229.5,140.3H0.1V69.4h229.4L229.5,140.3L229.5,140.3z M6,134.3h217.5v-59H6V134.3z"/>
<path d="M75.2,75.2H0V0h75.2V75.2z M6,69.3h63.3V6H6L6,69.3L6,69.3z"/>
<rect x="68.2" y="138" width="158.3" height="24.1"/>
<path d="M229.5,165.1H65.2V135h164.3V165.1z M71.1,159.1h152.4v-18.2H71.1V159.1z"/>
<polygon points="18.8,25.5 37.1,36.8 18.8,48.1 "/>
<polygon points="41.2,25.5 59.5,36.8 41.2,48.1 "/>
<g>
	<path class="st0" d="M80.3,146.8H83l-3.4,4l3.7,4.5h-2.9l-2.9-3.7l0,0v3.7h-2.2v-8.5h2.2v3.5l0,0L80.3,146.8z"/>
	<path class="st0" d="M84,146.8h2.2l4.1,5.2l0,0v-5.2h2.2v8.5h-2.2l-4.1-5.2l0,0v5.2H84V146.8z"/>
	<path class="st0" d="M103,150.9c0,2.8-2,4.7-4.7,4.7s-4.7-1.9-4.7-4.7c0-2.6,2.3-4.4,4.7-4.4S103,148.4,103,150.9z M95.8,151
		c0,1.5,1.1,2.5,2.4,2.5s2.4-1.1,2.4-2.5c0-1.2-1.1-2.2-2.4-2.2C96.9,148.7,95.8,149.8,95.8,151z"/>
	<path class="st0" d="M106.9,152.3L106.9,152.3l1.8-5.5h1.8l1.7,5.5l0,0l1.6-5.5h2.3l-2.7,8.5h-2.3l-1.5-4.9l0,0l-1.7,4.9h-2.2
		l-2.5-8.5h2.3L106.9,152.3z"/>
	<path class="st0" d="M118.8,153.5h2.7v1.9h-4.9v-8.5h2.2L118.8,153.5L118.8,153.5z"/>
	<path class="st0" d="M124.4,148.7v1.4h2.5v1.9h-2.5v1.5h2.6v1.9h-4.9v-8.5h4.9v1.9L124.4,148.7L124.4,148.7z"/>
	<path class="st0" d="M128.4,146.8h3.1c2.4,0,4.3,1.9,4.3,4.3s-2,4.3-4.3,4.3h-3.1V146.8z M130.7,153.5h0.5c1.3,0,2.5-0.7,2.5-2.4
		c0-1.5-1-2.4-2.4-2.4h-0.5v4.8H130.7z"/>
	<path class="st0" d="M145.5,150.6c0,1.2-0.1,2.3-0.9,3.4c-0.8,1.2-2.1,1.7-3.5,1.7c-2.7,0-4.5-1.8-4.5-4.5c0-2.8,1.9-4.6,4.6-4.6
		c1.8,0,3.1,0.8,3.8,2.4l-2.1,0.9c-0.3-0.8-1-1.4-1.8-1.4c-1.5,0-2.2,1.4-2.2,2.7c0,1.3,0.8,2.7,2.2,2.7c1,0,1.7-0.5,1.8-1.5h-1.8
		v-1.7h4.4V150.6z"/>
	<path class="st0" d="M148.7,148.7v1.4h2.5v1.9h-2.5v1.5h2.6v1.9h-4.9v-8.5h4.9v1.9L148.7,148.7L148.7,148.7z"/>
	<path class="st0" d="M158.8,155.4h-2.2v-8.5h2.2V155.4z"/>
	<path class="st0" d="M160.2,146.8h2.2l4.1,5.2l0,0v-5.2h2.2v8.5h-2.2l-4.1-5.2l0,0v5.2h-2.2V146.8z"/>
	<path class="st0" d="M176.3,153.9l-0.6,1.5h-2.4l3.3-8.5h2.4l3.2,8.5h-2.3l-0.6-1.5H176.3z M177.8,149.5L177.8,149.5l-0.9,2.7h1.8
		L177.8,149.5z"/>
	<path class="st0" d="M189,149.7c-0.5-0.6-1.2-0.9-1.9-0.9c-1.4,0-2.3,1-2.3,2.4c0,1.3,0.9,2.3,2.3,2.3c0.7,0,1.4-0.4,1.9-0.9v2.7
		c-0.7,0.2-1.3,0.4-2,0.4c-1.2,0-2.3-0.5-3.2-1.3c-0.9-0.8-1.4-2-1.4-3.2s0.4-2.3,1.3-3.1c0.8-0.9,2-1.4,3.2-1.4
		c0.7,0,1.4,0.2,2,0.4v2.6H189z"/>
	<path class="st0" d="M193.8,155.4h-2.2v-6.7h-1.8v-1.9h5.9v1.9h-1.8v6.7H193.8z"/>
	<path class="st0" d="M198.6,155.4h-2.2v-8.5h2.2V155.4z"/>
	<path class="st0" d="M209.1,150.9c0,2.8-2,4.7-4.7,4.7s-4.7-1.9-4.7-4.7c0-2.6,2.3-4.4,4.7-4.4
		C206.8,146.6,209.1,148.4,209.1,150.9z M201.9,151c0,1.5,1.1,2.5,2.4,2.5s2.4-1.1,2.4-2.5c0-1.2-1.1-2.2-2.4-2.2
		S201.9,149.8,201.9,151z"/>
	<path class="st0" d="M210.1,146.8h2.2l4.1,5.2l0,0v-5.2h2.2v8.5h-2.2l-4.1-5.2l0,0v5.2h-2.2V146.8z"/>
</g>
</svg>
